<svg width="32" height="34" viewBox="0 0 32 34" fill="none" xmlns="http://www.w3.org/2000/svg">
<rect y="2" width="32" height="32" rx="10.56" fill="url(#paint0_linear)"/>
<path d="M22.1261 21.2059L23.9302 22.7093C24.3724 23.0778 24.5935 23.2621 24.7717 23.306C25.1361 23.3958 25.5137 23.2189 25.678 22.8815C25.7583 22.7165 25.7583 22.4287 25.7583 21.8531V14.1245C25.7583 13.5489 25.7583 13.2611 25.678 13.0961C25.5137 12.7587 25.1361 12.5818 24.7717 12.6716C24.5935 12.7155 24.3724 12.8998 23.9302 13.2683L22.1261 14.7717C21.8321 15.0167 21.6851 15.1392 21.567 15.2792C21.33 15.5602 21.1714 15.8987 21.1073 16.2607C21.0754 16.4411 21.0754 16.6324 21.0754 17.0151V18.9625C21.0754 19.3452 21.0754 19.5365 21.1073 19.7169C21.1714 20.0789 21.33 20.4175 21.567 20.6984C21.6851 20.8384 21.8321 20.9609 22.1261 21.2059Z" fill="white"/>
<path d="M6.24609 14.589C6.24609 13.8667 6.24609 13.5055 6.38667 13.2296C6.51032 12.9869 6.70763 12.7896 6.95031 12.666C7.22621 12.5254 7.58737 12.5254 8.3097 12.5254H14.8908C16.7824 12.5254 17.7282 12.5254 18.4507 12.8935C19.0862 13.2173 19.6029 13.734 19.9267 14.3696C20.2949 15.0921 20.2949 16.0379 20.2949 17.9295V21.3886C20.2949 22.1109 20.2949 22.4721 20.1543 22.748C20.0306 22.9907 19.8333 23.188 19.5907 23.3116C19.3148 23.4522 18.9536 23.4522 18.2313 23.4522H11.6502C9.75858 23.4522 8.81277 23.4522 8.09027 23.0841C7.45475 22.7603 6.93804 22.2436 6.61423 21.608C6.24609 20.8855 6.24609 19.9397 6.24609 18.0481V14.589Z" fill="white"/>
<defs>
<linearGradient id="paint0_linear" x1="16" y1="2" x2="16" y2="34" gradientUnits="userSpaceOnUse">
<stop stop-color="#57A3FF"/>
<stop offset="1" stop-color="#3C82FB"/>
</linearGradient>
</defs>
</svg>